<?xml version="1.0" encoding="utf-8"?>
<!-- Generator: Adobe Illustrator 18.1.1, SVG Export Plug-In . SVG Version: 6.00 Build 0)  -->
<!DOCTYPE svg PUBLIC "-//W3C//DTD SVG 1.1//EN" "http://www.w3.org/Graphics/SVG/1.1/DTD/svg11.dtd">
<svg version="1.1" id="Layer_1" xmlns="http://www.w3.org/2000/svg" xmlns:xlink="http://www.w3.org/1999/xlink" x="0px" y="0px"
	 viewBox="0 0 33.3 33.3" enable-background="new 0 0 33.3 33.3" xml:space="preserve">
<path fill="#FFFFFF" d="M16.7,0.1C7.5,0.1,0.1,7.5,0.1,16.7c0,9.1,7.4,16.5,16.5,16.5c9.1,0,16.5-7.4,16.5-16.5
	C33.2,7.5,25.8,0.1,16.7,0.1z M24.6,17.7v5.9h-3.4v-5.5c0-1.4-0.5-2.3-1.7-2.3c-0.9,0-1.5,0.6-1.7,1.2c-0.1,0.2-0.1,0.5-0.1,0.8v5.7
	h-3.4c0,0,0-9.3,0-10.2h3.4v1.5c0,0,0,0,0,0h0v0c0.5-0.7,1.3-1.7,3.1-1.7C22.9,13.1,24.6,14.6,24.6,17.7z M8.9,13.4h3.4v10.2H8.9
	V13.4z M12.5,10.2c0,1-0.7,1.8-1.9,1.8h0c-1.1,0-1.9-0.8-1.9-1.8c0-1,0.8-1.8,1.9-1.8C11.8,8.4,12.5,9.2,12.5,10.2z"/>
</svg>
