<?xml version="1.0" encoding="utf-8"?>
<!-- Generator: Adobe Illustrator 18.1.1, SVG Export Plug-In . SVG Version: 6.00 Build 0)  -->
<!DOCTYPE svg PUBLIC "-//W3C//DTD SVG 1.1//EN" "http://www.w3.org/Graphics/SVG/1.1/DTD/svg11.dtd">
<svg version="1.1" id="Layer_1" xmlns="http://www.w3.org/2000/svg" xmlns:xlink="http://www.w3.org/1999/xlink" x="0px" y="0px"
	 viewBox="0 0 33.3 33.3" enable-background="new 0 0 33.3 33.3" xml:space="preserve">
<path fill="#FFFFFF" d="M16.7,0.2C7.6,0.2,0.2,7.6,0.2,16.7c0,9.1,7.4,16.4,16.4,16.4s16.4-7.4,16.4-16.4
	C33.1,7.6,25.7,0.2,16.7,0.2z M21.4,10c-0.9,0-1.8,0-2.3,0c-0.5,0-0.9,0.5-0.9,0.8c0,0.4,0,2.4,0,2.4s2.8,0,3.2,0
	C21.3,15,21,16.7,21,16.7h-2.8v10.3H14V16.7h-2.1v-3.5H14c0,0,0-2.3,0-2.8c0-0.5-0.1-4,4.3-4c0.6,0,1.9,0,3.1,0
	C21.4,7.9,21.4,9.5,21.4,10z"/>
</svg>
