<?xml version="1.0" encoding="utf-8"?>
<!-- Generator: Adobe Illustrator 18.1.1, SVG Export Plug-In . SVG Version: 6.00 Build 0)  -->
<!DOCTYPE svg PUBLIC "-//W3C//DTD SVG 1.1//EN" "http://www.w3.org/Graphics/SVG/1.1/DTD/svg11.dtd">
<svg version="1.1" id="Layer_1" xmlns="http://www.w3.org/2000/svg" xmlns:xlink="http://www.w3.org/1999/xlink" x="0px" y="0px"
	 viewBox="0 0 239.1 33.3" enable-background="new 0 0 239.1 33.3" xml:space="preserve">
<path fill="#FFFFFF" d="M119.6,0.1c-9.1,0-16.5,7.4-16.5,16.5c0,9.1,7.4,16.5,16.5,16.5c9.1,0,16.5-7.4,16.5-16.5
	C136.1,7.5,128.7,0.1,119.6,0.1z M127.5,17.7v5.9h-3.4v-5.5c0-1.4-0.5-2.3-1.7-2.3c-0.9,0-1.5,0.6-1.7,1.2c-0.1,0.2-0.1,0.5-0.1,0.8
	v5.7h-3.4c0,0,0-9.3,0-10.2h3.4v1.5c0,0,0,0,0,0h0v0c0.5-0.7,1.3-1.7,3.1-1.7C125.8,13.1,127.5,14.6,127.5,17.7z M111.8,13.4h3.4
	v10.2h-3.4V13.4z M115.4,10.2c0,1-0.7,1.8-1.9,1.8h0c-1.1,0-1.9-0.8-1.9-1.8c0-1,0.8-1.8,1.9-1.8C114.7,8.4,115.4,9.2,115.4,10.2z"
	/>
<g>
	<path fill="#FFFFFF" d="M220.4,23c0,0.5,0,0.8,0,0.9c-0.1,0.3-0.6,0.6-0.8,0c0-0.1,0-0.4,0-0.9l0-3.8h-1.3l0,3.7c0,0.6,0,1,0,1.2
		c0,0.3,0,0.7,0.3,1c0.6,0.4,1.7-0.1,2-0.7l0,0.8l1.1,0v-6h-1.3V23z"/>
	<polygon fill="#FFFFFF" points="218.5,18.2 218.5,17.1 214.3,17.1 214.3,18.1 215.6,18.1 215.6,25.2 216.9,25.2 216.9,18.2 	"/>
	<path fill="#FFFFFF" d="M222.2,12.5c0.3,0,0.6-0.3,0.6-0.6V8.6c0-0.4-0.3-0.6-0.6-0.6c-0.3,0-0.6,0.3-0.6,0.6v3.3
		C221.6,12.2,221.9,12.5,222.2,12.5z"/>
	<path fill="#FFFFFF" d="M223.8,19.5l0-2.3l-1.3,0l0,8.1l1.1,0l0.1-0.5c1.4,1.3,2.2,0.4,2.2-1.1l0-3.1
		C225.9,19.2,225,18.5,223.8,19.5z M224.9,23.8c0,0.3-0.3,0.5-0.6,0.5c-0.3,0-0.6-0.2-0.6-0.5v-3.5c0-0.3,0.3-0.5,0.6-0.5
		c0.3,0,0.6,0.2,0.6,0.5V23.8z"/>
	<path fill="#FFFFFF" d="M229,23.1c0,0,0,0.1,0,0.1v0.6c0,0.3-0.2,0.5-0.5,0.5h-0.2c-0.3,0-0.5-0.2-0.5-0.5v-0.1v-0.6v-0.8h2.3v-0.9
		c0-0.6,0-1.2-0.1-1.6c-0.2-1.1-1.7-1.3-2.5-0.7c-0.2,0.2-0.4,0.4-0.6,0.7c-0.1,0.3-0.2,0.8-0.2,1.3v1.9c0,3.1,3.8,2.7,3.3,0
		L229,23.1z M227.7,20.6c0-0.3,0.3-0.6,0.6-0.6h0.1c0.3,0,0.6,0.3,0.6,0.6l0,0.7h-1.2L227.7,20.6z"/>
	<path fill="#FFFFFF" d="M222.4,0c-9.2,0-16.6,7.4-16.6,16.6s7.4,16.6,16.6,16.6c9.2,0,16.6-7.4,16.6-16.6S231.6,0,222.4,0z
		 M224.8,7.1h1.2V12c0,0.3,0.2,0.5,0.5,0.5c0.3,0,0.5-0.2,0.5-0.5V7.1h1.2v6.3h-1.5l0-0.5c-0.1,0.2-0.2,0.4-0.4,0.5
		c-0.1,0.1-0.3,0.2-0.5,0.2c-0.2,0-0.4-0.1-0.5-0.1c-0.1-0.1-0.2-0.2-0.3-0.4c-0.1-0.2-0.1-0.3-0.1-0.5c0-0.2,0-0.5,0-1.1V7.1z
		 M221.2,7.2c0.3-0.2,0.6-0.3,1-0.3c0.3,0,0.6,0.1,0.9,0.2c0.2,0.1,0.4,0.3,0.6,0.5c0.1,0.2,0.2,0.4,0.3,0.7c0,0.2,0.1,0.6,0.1,1
		v1.6c0,0.6,0,1-0.1,1.3c0,0.3-0.1,0.5-0.3,0.8c-0.1,0.2-0.3,0.4-0.6,0.5c-0.2,0.1-0.5,0.2-0.8,0.2c-0.3,0-0.6,0-0.8-0.1
		c-0.2-0.1-0.4-0.2-0.5-0.4c-0.1-0.2-0.2-0.4-0.3-0.7c-0.1-0.3-0.1-0.7-0.1-1.2V9.4c0-0.6,0-1.1,0.1-1.4
		C220.7,7.7,220.9,7.4,221.2,7.2z M217.3,4.7l0.9,3.1l0.9-3.1h1.5L219,8.8l0,4.8h-1.4l0-4.8l-1.7-4.1H217.3z M231.9,24.5
		c0,1.6-1.4,2.9-3.1,2.9h-12.7c-1.7,0-3.1-1.3-3.1-2.9v-6.7c0-1.6,1.4-2.9,3.1-2.9h12.7c1.7,0,3.1,1.3,3.1,2.9V24.5z"/>
</g>
<path fill="#FFFFFF" d="M171,0.1c-9.2,0-16.6,7.4-16.6,16.6s7.4,16.6,16.6,16.6c9.2,0,16.6-7.4,16.6-16.6S180.2,0.1,171,0.1z
	 M178.1,17c-1.5,6.2-11.8,8.8-16.5,2.4c1.8,1.7,5,1.9,6.9-0.2c-1.2,0.2-2-1-0.6-1.6c-1.3,0.1-2-0.5-2.3-1.1c0.3-0.3,0.6-0.5,1.3-0.5
	c-1.4-0.3-1.9-1-2.1-1.9c0.4-0.1,0.9-0.2,1.2-0.1c-1.2-0.6-1.7-1.6-1.6-2.4c2.2,0.8,3.6,1.5,4.8,2.1c0.4,0.2,0.9,0.6,1.4,1.1
	c0.7-1.8,1.5-3.6,2.9-4.5c0,0.2-0.1,0.4-0.3,0.6c0.4-0.4,0.9-0.6,1.5-0.7c-0.1,0.4-0.6,0.6-1,0.8c0.3-0.1,1.7-0.7,1.8-0.4
	c0.2,0.4-1,0.6-1.2,0.7c-0.1,0-0.3,0.1-0.4,0.2c1.8-0.2,3.5,1.3,4,3.1c0,0.1,0.1,0.3,0.1,0.4c0.7,0.2,1.8,0,2.2-0.2
	c-0.3,0.6-1,1.1-2,1.2c0.5,0.2,1.5,0.3,2.1,0.2C179.9,16.6,179.3,17,178.1,17z"/>
<path fill="#FFFFFF" d="M68.1,0.2c-9.1,0-16.4,7.4-16.4,16.4c0,9.1,7.4,16.4,16.4,16.4s16.4-7.4,16.4-16.4
	C84.5,7.6,77.2,0.2,68.1,0.2z M72.9,10c-0.9,0-1.8,0-2.3,0c-0.5,0-0.9,0.5-0.9,0.8c0,0.4,0,2.4,0,2.4s2.8,0,3.2,0
	c-0.1,1.8-0.4,3.5-0.4,3.5h-2.8v10.3h-4.2V16.7h-2.1v-3.5h2.1c0,0,0-2.3,0-2.8c0-0.5-0.1-4,4.3-4c0.6,0,1.9,0,3.1,0
	C72.9,7.9,72.9,9.5,72.9,10z"/>
<path fill="#FFFFFF" d="M17,13.3c0,0.5-0.1,1.3-0.7,1.9c-0.4,0.4-1.1,0.7-1.8,0.7c-2.3,0-3.3-2.9-3.3-4.7c0-0.7,0.1-1.4,0.6-2
	c0.4-0.5,1.2-0.9,1.9-0.9C15.9,8.4,17,11.3,17,13.3z M15,20.2c-0.2,0-1.7,0.1-2.8,0.4c-0.6,0.2-2.3,0.8-2.3,2.7
	c0,1.9,1.8,3.2,4.7,3.2c2.5,0,3.9-1.2,3.9-2.9c0-1.3-0.9-2.1-2.9-3.5C15.4,20.2,15.2,20.2,15,20.2z M33.3,16.7
	c0,9.2-7.5,16.7-16.7,16.7C7.5,33.3,0,25.9,0,16.7C0,7.5,7.5,0,16.7,0C25.9,0,33.3,7.5,33.3,16.7z M17.4,8.5h1.6l1.7-1h-5.5
	c-1.4,0-3.2,0.2-4.7,1.5c-1.1,1-1.7,2.3-1.7,3.5c0,2.1,1.6,4.2,4.4,4.2c0.3,0,0.6,0,0.8-0.1c-0.1,0.3-0.3,0.6-0.3,1
	c0,0.8,0.4,1.3,0.8,1.8c-1.2,0.1-3.4,0.2-5.1,1.2c-1.6,0.9-2,2.3-2,3.2c0,2,1.9,3.8,5.7,3.8c4.6,0,7-2.5,7-5c0-1.8-1.1-2.7-2.2-3.7
	l-1-0.7c-0.3-0.2-0.7-0.6-0.7-1.1c0-0.6,0.4-1,0.7-1.3c1.1-0.9,2.2-1.8,2.2-3.8C19.3,10,18.1,9,17.4,8.5z M24.4,7.9v2.8h-2.7v1h2.7
	v2.8h1v-2.8h2.7v-1h-2.7V7.9H24.4z"/>
</svg>
