<?xml version="1.0" encoding="utf-8"?>
<!-- Generator: Adobe Illustrator 18.1.1, SVG Export Plug-In . SVG Version: 6.00 Build 0)  -->
<!DOCTYPE svg PUBLIC "-//W3C//DTD SVG 1.1//EN" "http://www.w3.org/Graphics/SVG/1.1/DTD/svg11.dtd">
<svg version="1.1" id="Layer_1" xmlns="http://www.w3.org/2000/svg" xmlns:xlink="http://www.w3.org/1999/xlink" x="0px" y="0px"
	 viewBox="0 0 33.2 33.2" enable-background="new 0 0 33.2 33.2" xml:space="preserve">
<path fill="#FFFFFF" d="M16.6,0C7.4,0,0,7.4,0,16.6s7.4,16.6,16.6,16.6c9.2,0,16.6-7.4,16.6-16.6S25.7,0,16.6,0z M23.7,17
	c-1.5,6.2-11.8,8.8-16.5,2.4c1.8,1.7,5,1.9,6.9-0.2c-1.2,0.2-2-1-0.6-1.6c-1.3,0.1-2-0.5-2.3-1.1c0.3-0.3,0.6-0.5,1.3-0.5
	c-1.4-0.3-1.9-1-2.1-1.9c0.4-0.1,0.9-0.2,1.2-0.1c-1.2-0.6-1.7-1.6-1.6-2.4c2.2,0.8,3.6,1.5,4.8,2.1c0.4,0.2,0.9,0.6,1.4,1.1
	c0.7-1.8,1.5-3.6,2.9-4.5c0,0.2-0.1,0.4-0.3,0.6c0.4-0.4,0.9-0.6,1.5-0.7c-0.1,0.4-0.6,0.6-1,0.8c0.3-0.1,1.7-0.7,1.8-0.4
	c0.2,0.4-1,0.6-1.2,0.7c-0.1,0-0.3,0.1-0.4,0.2c1.8-0.2,3.5,1.3,4,3.1c0,0.1,0.1,0.3,0.1,0.4c0.7,0.2,1.8,0,2.2-0.2
	c-0.3,0.6-1,1.1-2,1.2c0.5,0.2,1.5,0.3,2.1,0.2C25.5,16.6,24.8,17,23.7,17z"/>
</svg>
