<?xml version="1.0" encoding="utf-8"?>
<!-- Generator: Adobe Illustrator 18.1.1, SVG Export Plug-In . SVG Version: 6.00 Build 0)  -->
<!DOCTYPE svg PUBLIC "-//W3C//DTD SVG 1.1//EN" "http://www.w3.org/Graphics/SVG/1.1/DTD/svg11.dtd">
<svg version="1.1" id="Layer_1" xmlns="http://www.w3.org/2000/svg" xmlns:xlink="http://www.w3.org/1999/xlink" x="0px" y="0px"
	 viewBox="0 0 33.3 33.3" enable-background="new 0 0 33.3 33.3" xml:space="preserve">
<g>
	<path fill="#FFFFFF" d="M14.6,23c0,0.5,0,0.8,0,0.9c-0.1,0.3-0.6,0.6-0.8,0c0-0.1,0-0.4,0-0.9l0-3.8h-1.3l0,3.7c0,0.6,0,1,0,1.2
		c0,0.3,0,0.7,0.3,1c0.6,0.4,1.7-0.1,2-0.7l0,0.8l1.1,0v-6h-1.3V23z"/>
	<polygon fill="#FFFFFF" points="12.7,18.2 12.7,17.1 8.5,17.1 8.5,18.1 9.8,18.1 9.8,25.2 11.2,25.2 11.2,18.2 	"/>
	<path fill="#FFFFFF" d="M16.4,12.5c0.3,0,0.6-0.3,0.6-0.6V8.6c0-0.4-0.3-0.6-0.6-0.6c-0.3,0-0.6,0.3-0.6,0.6v3.3
		C15.8,12.2,16.1,12.5,16.4,12.5z"/>
	<path fill="#FFFFFF" d="M18,19.5l0-2.3l-1.3,0l0,8.1l1.1,0l0.1-0.5c1.4,1.3,2.2,0.4,2.2-1.1l0-3.1C20.1,19.2,19.2,18.5,18,19.5z
		 M19.1,23.8c0,0.3-0.3,0.5-0.6,0.5c-0.3,0-0.6-0.2-0.6-0.5v-3.5c0-0.3,0.3-0.5,0.6-0.5c0.3,0,0.6,0.2,0.6,0.5V23.8z"/>
	<path fill="#FFFFFF" d="M23.2,23.1c0,0,0,0.1,0,0.1v0.6c0,0.3-0.2,0.5-0.5,0.5h-0.2c-0.3,0-0.5-0.2-0.5-0.5v-0.1v-0.6v-0.8h2.3
		v-0.9c0-0.6,0-1.2-0.1-1.6c-0.2-1.1-1.7-1.3-2.5-0.7c-0.2,0.2-0.4,0.4-0.6,0.7c-0.1,0.3-0.2,0.8-0.2,1.3v1.9c0,3.1,3.8,2.7,3.3,0
		L23.2,23.1z M21.9,20.6c0-0.3,0.3-0.6,0.6-0.6h0.1c0.3,0,0.6,0.3,0.6,0.6l0,0.7h-1.2L21.9,20.6z"/>
	<path fill="#FFFFFF" d="M16.7,0C7.5,0,0,7.5,0,16.7s7.4,16.6,16.6,16.6c9.2,0,16.6-7.4,16.6-16.6S25.8,0,16.7,0z M19,7.1h1.2V12
		c0,0.3,0.2,0.5,0.5,0.5c0.3,0,0.5-0.2,0.5-0.5V7.1h1.2v6.3h-1.5l0-0.5c-0.1,0.2-0.2,0.4-0.4,0.5c-0.1,0.1-0.3,0.2-0.5,0.2
		c-0.2,0-0.4-0.1-0.5-0.1c-0.1-0.1-0.2-0.2-0.3-0.4c-0.1-0.2-0.1-0.3-0.1-0.5c0-0.2,0-0.5,0-1.1V7.1z M15.4,7.2
		c0.3-0.2,0.6-0.3,1-0.3c0.3,0,0.6,0.1,0.9,0.2c0.2,0.1,0.4,0.3,0.6,0.5C17.9,7.8,18,8,18.1,8.2c0,0.2,0.1,0.6,0.1,1v1.6
		c0,0.6,0,1-0.1,1.3c0,0.3-0.1,0.5-0.3,0.8c-0.1,0.2-0.3,0.4-0.6,0.5c-0.2,0.1-0.5,0.2-0.8,0.2c-0.3,0-0.6,0-0.8-0.1
		c-0.2-0.1-0.4-0.2-0.5-0.4c-0.1-0.2-0.2-0.4-0.3-0.7c-0.1-0.3-0.1-0.7-0.1-1.2V9.4c0-0.6,0-1.1,0.1-1.4C14.9,7.7,15.1,7.4,15.4,7.2
		z M11.6,4.7l0.9,3.1l0.9-3.1h1.5l-1.6,4.1l0,4.8h-1.4l0-4.8l-1.7-4.1H11.6z M26.1,24.5c0,1.6-1.4,2.9-3.1,2.9H10.3
		c-1.7,0-3.1-1.3-3.1-2.9v-6.7c0-1.6,1.4-2.9,3.1-2.9H23c1.7,0,3.1,1.3,3.1,2.9V24.5z"/>
</g>
</svg>
